<?xml version="1.0" encoding="UTF-8" standalone="no" ?>
<!DOCTYPE svg PUBLIC "-//W3C//DTD SVG 1.1//EN" "http://www.w3.org/Graphics/SVG/1.1/DTD/svg11.dtd">
<svg xmlns="http://www.w3.org/2000/svg" xmlns:xlink="http://www.w3.org/1999/xlink" version="1.1" width="128" height="128" viewBox="0 0 500 500" xml:space="preserve">
<desc>Created with Fabric.js 4.6.0</desc>
<defs>
</defs>
<g transform="matrix(0.61 -0.27 0.27 0.61 203.82 201.11)" id="4orlyWvUFoWZxoHoYI1Dl"  >
<path style="stroke: none; stroke-width: 1; stroke-dasharray: none; stroke-linecap: butt; stroke-dashoffset: 0; stroke-linejoin: miter; stroke-miterlimit: 4; fill: rgb(255,0,0); fill-rule: nonzero; opacity: 1;" vector-effect="non-scaling-stroke"  transform=" translate(-288, -256)" d="M 549.655 124.083 C 543.374 100.43299999999999 524.8679999999999 81.80699999999999 501.371 75.48599999999999 C 458.781 64 288 64 288 64 C 288 64 117.22 64 74.629 75.486 C 51.132000000000005 81.808 32.626000000000005 100.433 26.345000000000006 124.083 C 14.933000000000005 166.95 14.933000000000005 256.38800000000003 14.933000000000005 256.38800000000003 C 14.933000000000005 256.38800000000003 14.933000000000005 345.826 26.345000000000006 388.69300000000004 C 32.626000000000005 412.343 51.132000000000005 430.19300000000004 74.629 436.514 C 117.22 448 288 448 288 448 C 288 448 458.78 448 501.371 436.514 C 524.8679999999999 430.193 543.374 412.343 549.655 388.693 C 561.067 345.82599999999996 561.067 256.388 561.067 256.388 C 561.067 256.388 561.067 166.95 549.655 124.08299999999997 z M 232.14499999999998 337.591 L 232.14499999999998 175.185 L 374.884 256.39 L 232.145 337.591 z" stroke-linecap="round" />
</g>
<g transform="matrix(0.54 0.15 -0.15 0.54 341.35 301.35)" id="pcr6OPZksQ4-tGWmkeETz"  >
<path style="stroke: none; stroke-width: 1; stroke-dasharray: none; stroke-linecap: butt; stroke-dashoffset: 0; stroke-linejoin: miter; stroke-miterlimit: 4; fill: rgb(0,179,0); fill-rule: nonzero; opacity: 1;" vector-effect="non-scaling-stroke"  transform=" translate(-256, -256)" d="M 366.2 256 L 400 256 C 461.9 256 512 306.1 512 368 C 512 388.9 498.6 406.7 480 413.3 L 480 464 C 480 490.5 458.5 512 432 512 L 80 512 C 53.49 512 32 490.5 32 464 L 32 413.3 C 13.36 406.7 0 388.9 0 368 C 0 306.1 50.14 256 112 256 L 145.8 256 C 175.7 256 200 231.7 200 201.8 C 200 184.3 190.8 168.5 180.1 154.8 C 167.5 138.5 160 118.1 160 96 C 160 42.98 202.1 0 256 0 C 309 0 352 42.98 352 96 C 352 118.1 344.5 138.5 331.9 154.8 C 321.2 168.5 312 184.3 312 201.8 C 312 231.7 336.3 256 366.2 256 z M 416 416 L 96 416 L 96 448 L 416 448 L 416 416 z" stroke-linecap="round" />
</g>
</svg>